<?xml version="1.0" ?><svg enable-background="new 0 0 24 24" id="Layer_1" version="1.1" viewBox="0 0 24 24" xml:space="preserve" xmlns="http://www.w3.org/2000/svg" xmlns:xlink="http://www.w3.org/1999/xlink"><g><path d="M15.5,0h-7C7.6715727,0,7,0.6715729,7,1.5V5h10V1.5C17,0.6715729,16.3284264,0,15.5,0z" fill="#FFDA02" id="XMLID_1341_"/><path d="M15.5,0h-7C7.6728516,0,7,0.6728516,7,1.5v0.25   c0-0.8271484,0.6728516-1.5,1.5-1.5h7c0.8271484,0,1.5,0.6728516,1.5,1.5V1.5C17,0.6728516,16.3271484,0,15.5,0z" fill="#FFFFFF" id="XMLID_1338_" opacity="0.2"/><path d="M18,20H6v3.5C6,23.7761421,6.2238574,24,6.5,24h11c0.2761421,0,0.5-0.2238579,0.5-0.5V20z   " fill="#FFDA02" id="XMLID_1346_"/><g id="XMLID_1343_"><linearGradient gradientUnits="userSpaceOnUse" id="SVGID_1_" x1="9.3883848" x2="15.2099876" y1="18.3883858" y2="24.2099876"><stop offset="0" style="stop-color:#000000;stop-opacity:0.1"/><stop offset="1" style="stop-color:#000000;stop-opacity:0"/></linearGradient><path d="M6,21l3,3h8.5c0.2761421,0,0.5-0.2238579,0.5-0.5V21H6z" fill="url(#SVGID_1_)"/></g><path d="M17.5,4h-11C4.0185547,4,2,6.0185547,2,8.5v8C2,18.9814453,4.0185547,21,6.5,21h11   c2.4814453,0,4.5-2.0185547,4.5-4.5v-8C22,6.0185547,19.9814453,4,17.5,4z" fill="#FFDA02" id="XMLID_1342_"/><path d="M12,17c-1.3359375,0-2.5908203-0.5200195-3.5351563-1.4643555   c-0.1953125-0.1953125-0.1953125-0.5117188,0-0.7070313s0.5117188-0.1953125,0.7070313,0   c1.5097656,1.5107422,4.1464844,1.5107422,5.65625,0c0.1953125-0.1953125,0.5117188-0.1953125,0.7070313,0   s0.1953125,0.5117188,0,0.7070313C14.5908203,16.4799805,13.3359375,17,12,17z" fill="#333333" id="XMLID_1337_"/><circle cx="9" cy="11" fill="#333333" id="XMLID_1335_" r="1"/><circle cx="15" cy="11" fill="#333333" id="XMLID_1333_" r="1"/><path d="M17.5,4h-11C4.0185547,4,2,6.0185547,2,8.5v0.25   c0-2.4814453,2.0185547-4.5,4.5-4.5h11c2.4814453,0,4.5,2.0185547,4.5,4.5V8.5C22,6.0185547,19.9814453,4,17.5,4z" fill="#FFFFFF" id="XMLID_1327_" opacity="0.2"/><path d="M17.5,20.75h-11c-2.4814453,0-4.5-2.0185547-4.5-4.5v0.25   C2,18.9814453,4.0185547,21,6.5,21h11c2.4814453,0,4.5-2.0185547,4.5-4.5v-0.25C22,18.7314453,19.9814453,20.75,17.5,20.75z" id="XMLID_1324_" opacity="0.05"/><linearGradient gradientUnits="userSpaceOnUse" id="SVGID_2_" x1="1.9047898" x2="22.1578617" y1="7.7070093" y2="17.1511707"><stop offset="0" style="stop-color:#FFFFFF;stop-opacity:0.2"/><stop offset="1" style="stop-color:#FFFFFF;stop-opacity:0"/></linearGradient><path d="M17.5,4H17V1.5C17,0.6715698,16.3284302,0,15.5,0h-7C7.6715698,0,7,0.6715698,7,1.5V4H6.5   C4.0185547,4,2,6.0185547,2,8.5v8c0,2.3102417,1.7561646,4.1970215,4,4.4494629V23.5C6,23.776123,6.223877,24,6.5,24h11   c0.276123,0,0.5-0.223877,0.5-0.5v-2.5505371c2.2438354-0.2524414,4-2.1392212,4-4.4494629v-8C22,6.0185547,19.9814453,4,17.5,4z" fill="url(#SVGID_2_)"/></g><g/><g/><g/><g/><g/><g/><g/><g/><g/><g/><g/><g/><g/><g/><g/></svg>